<?xml version="1.0" encoding="utf-8"?>
<!-- Generator: Adobe Illustrator 19.0.0, SVG Export Plug-In . SVG Version: 6.00 Build 0)  -->
<svg version="1.1" xmlns="http://www.w3.org/2000/svg" xmlns:xlink="http://www.w3.org/1999/xlink" x="0px" y="0px"
	 viewBox="0 0 58 44.7" style="enable-background:new 0 0 58 44.7;" xml:space="preserve">
<style type="text/css">
	.st0{display:none;}
	.st1{display:inline;}
	.st2{fill:#9DC6B3;}
	.st3{fill:#FFFFFF;}
	.st4{fill:#6ABD45;}
</style>
<g id="Calque_1" class="st0">
	<g id="XMLID_103_" class="st1">
		<path id="XMLID_201_" class="st2" d="M50,43.5c-11.5,0-23,0-34.5,0c-8.9,0-13.8-5-13.9-13.9C1.4,17.1,3.9,5.5,11.9-4.5
			c8.7-10.9,19.9-17.1,33.9-18.4C70.3-25.1,89.1-9.3,95.5,8.2c2.8,7.7,3.6,15.6,3.1,23.7c-0.5,7.2-5.7,11.6-13,11.6
			C73.7,43.5,61.9,43.5,50,43.5z M50.1,37.3c11.7,0,23.4,0,35,0c4.6,0,7.2-2.3,7.2-7c0-4,0-8.1-0.6-12C87.9-7.3,61.3-23.5,36.9-15.1
			C15.8-7.8,6.4,10.8,8,31.3c0.3,3.9,2.9,6,6.8,6C26.5,37.3,38.3,37.3,50.1,37.3z"/>
		<path id="XMLID_140_" class="st2" d="M50.1,34c-4.1,0-7.6-2.5-9.1-6.2c-1.4-3.6-0.4-7.7,2.4-10.5c5.5-5.8,10.9-11.6,16.4-17.5
			c2-2.1,3.7-4.5,5.7-6.5c0.7-0.7,2-0.8,3.1-1.1c0.2,1.1,0.8,2.3,0.5,3.2C66.5,3.5,63.6,11.7,61,20c-0.5,1.6-0.8,3.2-1,4.9
			C59.5,30,55.3,34,50.1,34z M50.1,28.9c2.7,0,4.7-1.9,4.7-4.5c0.1-2.6-2.1-4.9-4.7-4.9c-2.6,0-4.8,2.3-4.7,4.9
			C45.5,26.9,47.5,28.9,50.1,28.9z"/>
		<path id="XMLID_139_" class="st2" d="M26.3,6.7c0.1,2.3-1.7,4.2-3.9,4.3c-2.1,0.1-4-1.8-4.1-4.1c0-2.3,1.4-3.8,3.7-3.9
			C24.6,2.8,26.3,4.3,26.3,6.7z"/>
		<path id="XMLID_138_" class="st2" d="M81.9,6.9c0,2.2-1.9,4.1-4.1,4.1c-2.2-0.1-3.9-2-3.9-4.3c0.1-2.3,1.6-3.7,3.9-3.7
			C80.4,2.9,81.9,4.4,81.9,6.9z"/>
		<path id="XMLID_107_" class="st2" d="M50-13.2c2.1-0.1,4.2,2,4.3,4c0,2-1.8,3.8-3.9,3.9C48.1-5.2,46.1-6.8,46-9
			C45.9-11,47.9-13.1,50-13.2z"/>
		<path id="XMLID_106_" class="st2" d="M22,22.7c0,2.5-1.5,4-4,4c-2.1,0-4-1.7-4.1-3.8c-0.1-2.2,1.8-4.1,4-4.2
			C20.2,18.7,21.9,20.4,22,22.7z"/>
		<path id="XMLID_105_" class="st2" d="M86.3,22.8c0,2.1-1.9,3.9-4.2,3.9c-2.3,0-3.8-1.5-3.8-3.8c0-2.4,1.6-4.1,3.9-4.1
			C84.4,18.8,86.3,20.6,86.3,22.8z"/>
		<path id="XMLID_104_" class="st2" d="M38.1-5c0.1,2.2-1.8,4.2-4,4.1c-2.1,0-3.9-1.8-3.9-3.9c-0.1-2.3,1.4-3.9,3.7-4
			C36.2-8.9,38-7.3,38.1-5z"/>
	</g>
</g>
<g id="Calque_2" class="st0">
	<g id="XMLID_92_" class="st1">
		<g id="XMLID_191_">
			<path id="XMLID_192_" class="st3" d="M58.8-19.3c1.7,0,3.3,0,4.9,0c3.4,0,5.6,2.1,5.6,5.6c0,17.3,0,34.5,0,51.8
				c0,3.5-2.2,5.6-5.7,5.6c-18.9,0-37.8,0-56.7,0c-3.6,0-5.8-2.1-5.8-5.7c0-17.2,0-34.4,0-51.7c0-3.5,2.2-5.6,5.7-5.6
				c1.5,0,3.1,0,4.8,0c0-1.1,0-2.2,0-3.3c0-4.6,2.6-7.2,7.3-7.2c1.2,0,2.5,0,3.6,0.3c2.6,0.6,4.5,3,4.7,5.6c0.1,1.5,0,3,0,4.5
				c5.4,0,10.5,0,15.9,0c0-1,0-1.9,0-2.9c0-5.1,2.5-7.6,7.6-7.6c1.9,0,3.9,0,5.5,1.3c1.8,1.4,2.7,3.3,2.7,5.6
				C58.7-21.8,58.8-20.6,58.8-19.3z M49.5,23.9c0-4.4,0-8.7,0-13c-4.4,0-8.7,0-13,0c0,4.4,0,8.7,0,13C40.9,23.9,45.2,23.9,49.5,23.9
				z M33.8,10.9c-4.4,0-8.7,0-13,0c0,4.4,0,8.7,0,13c4.4,0,8.6,0,13,0C33.8,19.6,33.8,15.3,33.8,10.9z M52.3,10.9c0,4.4,0,8.7,0,13
				c3.9,0,7.8,0,11.7,0c0-4.4,0-8.7,0-13C60,10.9,56.2,10.9,52.3,10.9z M6.3,23.9c4,0,7.8,0,11.7,0c0-4.4,0-8.7,0-13
				c-3.9,0-7.8,0-11.7,0C6.3,15.3,6.3,19.6,6.3,23.9z M36.5,8.2c4.4,0,8.7,0,13,0c0-3.9,0-7.8,0-11.7c-4.4,0-8.7,0-13,0
				C36.5,0.4,36.5,4.2,36.5,8.2z M20.8,8.2c4.4,0,8.7,0,13,0c0-4,0-7.8,0-11.7c-4.4,0-8.6,0-13,0C20.8,0.4,20.8,4.3,20.8,8.2z
				 M20.8,38.4c4.4,0,8.6,0,13,0c0-3.9,0-7.8,0-11.7c-4.4,0-8.6,0-13,0C20.8,30.6,20.8,34.5,20.8,38.4z M36.5,38.4c4.4,0,8.7,0,13,0
				c0-3.9,0-7.8,0-11.7c-4.4,0-8.7,0-13,0C36.5,30.6,36.5,34.4,36.5,38.4z M6.4,8.2c3.9,0,7.8,0,11.7,0c0-3.9,0-7.8,0-11.7
				c-3.9,0-7.8,0-11.7,0C6.4,0.4,6.4,4.3,6.4,8.2z M18,38.4c0-3.9,0-7.8,0-11.7c-3.9,0-7.8,0-11.7,0c0,3.9,0,7.8,0,11.7
				C10.3,38.4,14.1,38.4,18,38.4z M52.3-3.5c0,4,0,7.8,0,11.7c3.9,0,7.8,0,11.7,0c0-3.9,0-7.8,0-11.7C60.1-3.5,56.2-3.5,52.3-3.5z
				 M52.3,38.3c3.9,0,7.8,0,11.7,0c0-3.9,0-7.8,0-11.7c-3.9,0-7.8,0-11.7,0C52.3,30.6,52.3,34.4,52.3,38.3z M22.1-17.3
				C22.1-17.3,22.1-17.3,22.1-17.3c0-1.4,0-2.7,0-4.1c0-3.3,0-3.3-3.2-3.3c-1.7,0-2,0.4-2.1,2.1c0,3,0,6,0,9c0,3.4,0,3.4,3.4,3.3
				c1.4,0,1.8-0.4,1.8-1.8C22.1-13.7,22.1-15.5,22.1-17.3z M53.6-17.3c0-1.4,0-2.7,0-4.1c0-3.3,0-3.3-3.3-3.2c-1.6,0-2,0.4-2,2
				c0,3.1,0,6.1,0,9.2c0,3.3,0,3.3,3.3,3.3c1.5,0,1.9-0.4,1.9-2C53.6-13.8,53.6-15.6,53.6-17.3z"/>
		</g>
	</g>
</g>
<g id="Calque_3" class="st0">
	<g id="XMLID_86_" class="st1">
		<path id="XMLID_87_" class="st2" d="M77-15c2.2,1,3.5,2.6,3.6,4.9c0.1,1.2-0.1,2.5-0.5,3.7C76,7.5,71.8,21.3,67.6,35.1
			c-1.7,5.4-5.2,8-10.9,8c-14,0-27.9,0-41.9,0c-5.9,0-11.3-4.1-12.6-9.7c-0.4-1.9,0.1-4,0.1-6c0-1.2-0.1-2.3,0.1-3.5
			c0.1-0.8,0.4-1.6,0.8-2.4c1.4-2.9,2.9-5.8,4.2-8.7c0.4-1,0.2-2.2,0.4-3.3c0.2-0.8,0.4-1.6,0.8-2.2c2.2-3.7,4.2-7.4,3.9-11.9
			c0-0.7,0.5-1.5,1-2.1c2.6-2.7,3.6-6.1,4.4-9.7c0.1-0.5-0.2-1-0.1-1.5c0.1-0.8,0.2-1.6,0.6-2.2c1-2,2.3-3.9,3.3-5.9
			c1.6-3.3,2.7-4,6.4-3.7c0.9,0.1,1.9-0.2,2.9-0.2c11.8,0,23.7,0,35.5,0c3.7,0,6.3,2.1,6.8,5.5c0.1,1.1,0,2.3-0.3,3.4
			C68.4-6.1,63.9,8.7,59.4,23.4c-0.3,0.9-0.7,1.8-1,2.7c-1.1,3.3-3.5,4.8-6.9,4.8c-0.7,0-1.4,0-2.1,0c-13.2,0-26.3,0-39.5,0
			c-0.9,0-2.4,0.5-2.6,1c-0.2,0.9,0.1,2.2,0.8,3c0.7,0.8,1.9,1.4,2.9,1.7c1,0.3,2.2,0.4,3.3,0.4c14.2,0,28.3,0,42.5,0
			c3.7,0,4.8-0.8,5.9-4.3c4.5-14.8,9-29.6,13.5-44.4C76.6-12.7,76.7-13.8,77-15z M54.1,0.6c1.7,0,2.7-0.6,3.1-2.2
			c0.1-0.6,0.4-1.1,0.6-1.7c0.5-1.7,0.2-2.1-1.5-2.1c-9.2,0-18.4,0-27.6,0c-1.5,0-2.4,0.7-2.8,2.1c-0.2,0.6-0.4,1.2-0.6,1.7
			C24.7,0.2,25,0.6,27,0.6L54.1,0.6z M46.4-17.6c-4.6,0-9.1,0-13.7,0c-1.5,0-2.5,0.6-2.9,2.1c-0.2,0.6-0.4,1.1-0.6,1.7
			c-0.6,1.9-0.3,2.3,1.6,2.3c9.1,0,18.2,0,27.3,0c1.5,0,2.5-0.6,2.9-2.1c0.2-0.6,0.4-1.2,0.6-1.7c0.6-1.9,0.3-2.3-1.6-2.3
			C55.5-17.6,50.9-17.6,46.4-17.6z"/>
	</g>
</g>
<g id="Calque_4" class="st0">
	<g id="XMLID_65_" class="st1">
		<g id="XMLID_113_">
			<path id="XMLID_114_" class="st3" d="M1.7,43.2c0-24.3,0-48.6,0-72.9c24.3,0,48.6,0,72.9,0c0,24.3,0,48.6,0,72.9
				C50.3,43.2,26.1,43.2,1.7,43.2z M23.2-20.8c0.4,0.6,0.7,1.1,1,1.5c2.8,3.7,5.5,7.5,8.4,11.2c0.8,1,0.9,1.9,0.4,3
				c-3.2,9-6.3,18-9.5,26.9c-0.4,1.2-0.2,1.8,0.7,2.6c3.4,3.2,6.8,6.4,10.1,9.7c1.3,1.2,2.5,2.4,3.9,3.7c5-4.8,9.8-9.4,14.6-14.1
				c0.3-0.3,0.3-1.1,0.1-1.6c-3.2-9.2-6.4-18.4-9.6-27.5c-0.3-1-0.3-1.7,0.4-2.5c2.1-2.6,4-5.3,6-8c1.2-1.6,2.3-3.1,3.6-4.9
				C43.1-20.8,33.3-20.8,23.2-20.8z"/>
		</g>
	</g>
</g>
<g id="Calque_5" class="st0">
	<g id="XMLID_70_" class="st1">
		<path id="XMLID_1611_" class="st2" d="M8.2,27.3c0.4-0.6,0.6-1.2,1-1.8c1.3-1.7,2.6-3.3,3.9-5.1c0.3-0.4,0.2-1.1,0.2-1.7
			c0-0.4-0.4-0.7-0.5-1.1c-0.4-2.5-2-3.1-4.3-3.2c-1.6-0.1-3.2-0.5-4.8-0.6c-1.3-0.2-2-0.8-2-2.2c0-3.2,0-6.5,0-9.7
			c0-1.4,0.7-2.1,2.1-2.3c2.3-0.3,4.6-0.6,6.9-1c0.6-0.1,1-0.7,1.5-1.2c0.1-0.1,0.1-0.4,0.2-0.6c1.6-2.2,0.9-3.9-0.8-5.7
			c-1-1-1.8-2.3-2.8-3.4C8-13.2,7.9-14.1,8.7-15c2.5-2.5,5-5,7.5-7.5c1-1,2-0.9,3.1,0c1.7,1.4,3.5,2.8,5.3,4.1
			c0.5,0.3,1.3,0.3,1.9,0.2c2.7-0.5,3.9-2.1,3.8-4.9c0-1.4,0.4-2.9,0.7-4.3c0.4-1.9,0.7-2.2,2.6-2.2c3,0,6.1,0,9.1,0
			c1.8,0,2.3,0.4,2.5,2.1c0.3,2.3,0.7,4.5,1,6.8c0.1,0.9,0.6,1.3,1.4,1.8c2.4,1.4,4.2,1,6.1-0.9c1.1-1.1,2.4-1.8,3.6-2.8
			c1-0.8,1.9-0.7,2.7,0.1c2.4,2.4,4.7,4.8,7.1,7.1c1.1,1.2,1,2.3,0,3.5c-1.3,1.6-2.5,3.3-3.8,4.9c-0.6,0.7-0.7,1.3-0.2,2
			c0.1,0.2,0.3,0.4,0.3,0.7c0.4,2.6,2.2,3.4,4.6,3.5c1.6,0.1,3.1,0.5,4.7,0.6c1.3,0.2,2,0.9,2,2.2c0,3.2,0,6.4,0,9.6
			c0,1.5-0.7,2.2-2.1,2.4c-2.3,0.3-4.5,0.7-6.8,1c-0.9,0.1-1.4,0.4-1.6,1.3c0,0.1-0.1,0.3-0.2,0.4c-1.7,2.2-0.8,4,0.9,5.8
			c1,1.1,1.8,2.3,2.8,3.4c0.7,0.9,0.9,1.9,0,2.7c-2.4,2.5-4.9,5-7.4,7.4c-1.1,1.1-2.2,1-3.4,0c-1.6-1.4-3.4-2.6-5-4
			c-0.7-0.5-1.2-0.6-2-0.3c-2.7,0.7-3.9,2.2-3.8,5c0,1.5-0.5,3-0.7,4.5c-0.2,1.4-1,2.1-2.5,2.1c-3.1-0.1-6.2,0-9.3,0
			c-1.8,0-2.2-0.4-2.5-2.2c-0.3-2.3-0.7-4.5-1-6.8c-0.1-0.9-0.6-1.3-1.4-1.7c-2.4-1.4-4.2-1-6.1,0.9c-1.1,1.1-2.4,1.9-3.6,2.8
			c-0.9,0.7-1.8,0.7-2.6-0.1c-2.4-2.4-4.9-4.9-7.3-7.3C8.8,28.5,8.6,27.9,8.2,27.3z M50.3,7.6c0.6-6.5-4.5-12.4-11-13
			C32.3-6,26.4-0.4,26,6.3c-0.3,6.3,4.7,12.1,11.4,12.7C44.2,19.5,50.2,13.8,50.3,7.6z"/>
	</g>
</g>
<g id="Calque_6">
	<g id="XMLID_71_">
		<path id="XMLID_1646_" class="st4" d="M23,25.8c-0.5-0.4-0.8-0.7-1.1-1c-3.1-3.1-6.2-6.2-9.3-9.2c-1.8-1.8-3.6-1.8-5.4,0
			c-1.5,1.4-2.9,2.9-4.3,4.3c-1.6,1.7-1.7,3.6,0,5.2c5.7,5.8,11.5,11.5,17.3,17.3c0.4,0.4,1,0.8,1.6,1c1.5,0.5,2.7-0.1,3.8-1.1
			c9.9-9.9,19.9-19.9,29.8-29.8c0.1-0.1,0.2-0.2,0.3-0.3c1.4-1.6,1.4-3.5-0.1-5.1c-1.4-1.4-2.7-2.7-4.1-4.1c-2.1-2.1-3.8-2.1-5.9,0
			c-7.3,7.3-14.6,14.6-21.9,21.9C23.5,25.1,23.3,25.4,23,25.8z"/>
		<path id="XMLID_1469_" class="st4" d="M23,25.8c0.3-0.4,0.5-0.8,0.8-1c7.3-7.3,14.6-14.6,21.9-21.9c2-2,3.8-2,5.9,0
			c1.4,1.4,2.7,2.7,4.1,4.1c1.5,1.5,1.6,3.4,0.1,5.1c-0.1,0.1-0.2,0.2-0.3,0.3c-9.9,9.9-19.9,19.9-29.8,29.8
			c-1.1,1.1-2.3,1.7-3.8,1.1c-0.6-0.2-1.2-0.6-1.6-1C14.4,36.6,8.7,30.9,2.9,25.1c-1.6-1.6-1.6-3.6,0-5.2c1.4-1.5,2.9-2.9,4.3-4.3
			c1.8-1.7,3.6-1.7,5.4,0c3.1,3.1,6.2,6.2,9.3,9.2C22.2,25.1,22.5,25.4,23,25.8z"/>
	</g>
</g>
</svg>
