<?xml version="1.0" encoding="utf-8"?>
<!-- Generator: Adobe Illustrator 19.0.0, SVG Export Plug-In . SVG Version: 6.00 Build 0)  -->
<svg version="1.1" xmlns="http://www.w3.org/2000/svg" xmlns:xlink="http://www.w3.org/1999/xlink" x="0px" y="0px"
	 viewBox="0 0 70.3 56.5" style="enable-background:new 0 0 70.3 56.5;" xml:space="preserve">
<style type="text/css">
	.st0{display:none;}
	.st1{display:inline;}
	.st2{fill:#9DC6B3;}
	.st3{fill:#FFFFFF;}
	.st4{fill:#6ABD45;}
	.st5{fill:#FFFFFF;stroke:#FFFFFF;stroke-width:0.5;stroke-miterlimit:10;}
</style>
<g id="Calque_1" class="st0">
	<g id="XMLID_103_" class="st1">
		<path id="XMLID_201_" class="st2" d="M50,55.3c-11.5,0-23,0-34.5,0c-8.9,0-13.8-5-13.9-13.9C1.4,29,3.9,17.4,11.9,7.4
			C20.6-3.5,31.9-9.7,45.8-11c24.4-2.3,43.3,13.6,49.7,31.1c2.8,7.7,3.6,15.6,3.1,23.7c-0.5,7.2-5.7,11.6-13,11.6
			C73.7,55.4,61.9,55.3,50,55.3z M50.1,49.1c11.7,0,23.4,0,35,0c4.6,0,7.2-2.3,7.2-7c0-4,0-8.1-0.6-12C87.9,4.6,61.3-11.6,36.9-3.2
			C15.8,4.1,6.4,22.6,8,43.2c0.3,3.9,2.9,6,6.8,6C26.5,49.1,38.3,49.1,50.1,49.1z"/>
		<path id="XMLID_140_" class="st2" d="M50.1,45.8c-4.1,0-7.6-2.5-9.1-6.2c-1.4-3.6-0.4-7.7,2.4-10.5c5.5-5.8,10.9-11.6,16.4-17.5
			c2-2.1,3.7-4.5,5.7-6.5c0.7-0.7,2-0.8,3.1-1.1c0.2,1.1,0.8,2.3,0.5,3.2c-2.6,8.2-5.4,16.4-8.1,24.7c-0.5,1.6-0.8,3.2-1,4.9
			C59.5,41.9,55.3,45.8,50.1,45.8z M50.1,40.7c2.7,0,4.7-1.9,4.7-4.5c0.1-2.6-2.1-4.9-4.7-4.9c-2.6,0-4.8,2.3-4.7,4.9
			C45.5,38.8,47.5,40.7,50.1,40.7z"/>
		<path id="XMLID_139_" class="st2" d="M26.3,18.5c0.1,2.3-1.7,4.2-3.9,4.3c-2.1,0.1-4-1.8-4.1-4.1c0-2.3,1.4-3.8,3.7-3.9
			C24.6,14.7,26.3,16.1,26.3,18.5z"/>
		<path id="XMLID_138_" class="st2" d="M81.9,18.7c0,2.2-1.9,4.1-4.1,4.1c-2.2-0.1-3.9-2-3.9-4.3c0.1-2.3,1.6-3.7,3.9-3.7
			C80.4,14.8,81.9,16.3,81.9,18.7z"/>
		<path id="XMLID_107_" class="st2" d="M50-1.3c2.1-0.1,4.2,2,4.3,4c0,2-1.8,3.8-3.9,3.9C48.1,6.7,46.1,5,46,2.8
			C45.9,0.8,47.9-1.3,50-1.3z"/>
		<path id="XMLID_106_" class="st2" d="M22,34.6c0,2.5-1.5,4-4,4c-2.1,0-4-1.7-4.1-3.8c-0.1-2.2,1.8-4.1,4-4.2
			C20.2,30.5,21.9,32.2,22,34.6z"/>
		<path id="XMLID_105_" class="st2" d="M86.3,34.6c0,2.1-1.9,3.9-4.2,3.9c-2.3,0-3.8-1.5-3.8-3.8c0-2.4,1.6-4.1,3.9-4.1
			C84.4,30.6,86.3,32.4,86.3,34.6z"/>
		<path id="XMLID_104_" class="st2" d="M38.1,6.9c0.1,2.2-1.8,4.2-4,4.1c-2.1,0-3.9-1.8-3.9-3.9c-0.1-2.3,1.4-3.9,3.7-4
			C36.2,3,38,4.6,38.1,6.9z"/>
	</g>
</g>
<g id="Calque_2" class="st0">
	<g id="XMLID_92_" class="st1">
		<g id="XMLID_191_">
			<path id="XMLID_192_" class="st3" d="M58.8-7.4c1.7,0,3.3,0,4.9,0c3.4,0,5.6,2.1,5.6,5.6c0,17.3,0,34.5,0,51.8
				c0,3.5-2.2,5.6-5.7,5.6c-18.9,0-37.8,0-56.7,0c-3.6,0-5.8-2.1-5.8-5.7c0-17.2,0-34.4,0-51.7c0-3.5,2.2-5.6,5.7-5.6
				c1.5,0,3.1,0,4.8,0c0-1.1,0-2.2,0-3.3c0-4.6,2.6-7.2,7.3-7.2c1.2,0,2.5,0,3.6,0.3c2.6,0.6,4.5,3,4.7,5.6c0.1,1.5,0,3,0,4.5
				c5.4,0,10.5,0,15.9,0c0-1,0-1.9,0-2.9c0-5.1,2.5-7.6,7.6-7.6c1.9,0,3.9,0,5.5,1.3c1.8,1.4,2.7,3.3,2.7,5.6
				C58.7-9.9,58.8-8.7,58.8-7.4z M49.5,35.8c0-4.4,0-8.7,0-13c-4.4,0-8.7,0-13,0c0,4.4,0,8.7,0,13C40.9,35.8,45.2,35.8,49.5,35.8z
				 M33.8,22.8c-4.4,0-8.7,0-13,0c0,4.4,0,8.7,0,13c4.4,0,8.6,0,13,0C33.8,31.4,33.8,27.1,33.8,22.8z M52.3,22.8c0,4.4,0,8.7,0,13
				c3.9,0,7.8,0,11.7,0c0-4.4,0-8.7,0-13C60,22.8,56.2,22.8,52.3,22.8z M6.3,35.8c4,0,7.8,0,11.7,0c0-4.4,0-8.7,0-13
				c-3.9,0-7.8,0-11.7,0C6.3,27.1,6.3,31.4,6.3,35.8z M36.5,20.1c4.4,0,8.7,0,13,0c0-3.9,0-7.8,0-11.7c-4.4,0-8.7,0-13,0
				C36.5,12.3,36.5,16.1,36.5,20.1z M20.8,20c4.4,0,8.7,0,13,0c0-4,0-7.8,0-11.7c-4.4,0-8.6,0-13,0C20.8,12.3,20.8,16.1,20.8,20z
				 M20.8,50.2c4.4,0,8.6,0,13,0c0-3.9,0-7.8,0-11.7c-4.4,0-8.6,0-13,0C20.8,42.5,20.8,46.3,20.8,50.2z M36.5,50.2c4.4,0,8.7,0,13,0
				c0-3.9,0-7.8,0-11.7c-4.4,0-8.7,0-13,0C36.5,42.5,36.5,46.3,36.5,50.2z M6.4,20.1c3.9,0,7.8,0,11.7,0c0-3.9,0-7.8,0-11.7
				c-3.9,0-7.8,0-11.7,0C6.4,12.3,6.4,16.2,6.4,20.1z M18,50.2c0-3.9,0-7.8,0-11.7c-3.9,0-7.8,0-11.7,0c0,3.9,0,7.8,0,11.7
				C10.3,50.2,14.1,50.2,18,50.2z M52.3,8.3c0,4,0,7.8,0,11.7c3.9,0,7.8,0,11.7,0c0-3.9,0-7.8,0-11.7C60.1,8.3,56.2,8.3,52.3,8.3z
				 M52.3,50.2c3.9,0,7.8,0,11.7,0c0-3.9,0-7.8,0-11.7c-3.9,0-7.8,0-11.7,0C52.3,42.4,52.3,46.3,52.3,50.2z M22.1-5.4
				C22.1-5.4,22.1-5.4,22.1-5.4c0-1.4,0-2.7,0-4.1c0-3.3,0-3.3-3.2-3.3c-1.7,0-2,0.4-2.1,2.1c0,3,0,6,0,9c0,3.4,0,3.4,3.4,3.3
				c1.4,0,1.8-0.4,1.8-1.8C22.1-1.8,22.1-3.6,22.1-5.4z M53.6-5.4c0-1.4,0-2.7,0-4.1c0-3.3,0-3.3-3.3-3.2c-1.6,0-2,0.4-2,2
				c0,3.1,0,6.1,0,9.2c0,3.3,0,3.3,3.3,3.3c1.5,0,1.9-0.4,1.9-2C53.6-2,53.6-3.7,53.6-5.4z"/>
		</g>
	</g>
</g>
<g id="Calque_3" class="st0">
	<g id="XMLID_86_" class="st1">
		<path id="XMLID_87_" class="st2" d="M77-3.1c2.2,1,3.5,2.6,3.6,4.9c0.1,1.2-0.1,2.5-0.5,3.7C76,19.3,71.8,33.2,67.6,47
			c-1.7,5.4-5.2,8-10.9,8c-14,0-27.9,0-41.9,0c-5.9,0-11.3-4.1-12.6-9.7c-0.4-1.9,0.1-4,0.1-6c0-1.2-0.1-2.3,0.1-3.5
			c0.1-0.8,0.4-1.6,0.8-2.4c1.4-2.9,2.9-5.8,4.2-8.7c0.4-1,0.2-2.2,0.4-3.3c0.2-0.8,0.4-1.6,0.8-2.2c2.2-3.7,4.2-7.4,3.9-11.9
			c0-0.7,0.5-1.5,1-2.1c2.6-2.7,3.6-6.1,4.4-9.7c0.1-0.5-0.2-1-0.1-1.5c0.1-0.8,0.2-1.6,0.6-2.2c1-2,2.3-3.9,3.3-5.9
			c1.6-3.3,2.7-4,6.4-3.7c0.9,0.1,1.9-0.2,2.9-0.2c11.8,0,23.7,0,35.5,0c3.7,0,6.3,2.1,6.8,5.5c0.1,1.1,0,2.3-0.3,3.4
			c-4.4,14.8-8.9,29.5-13.4,44.2c-0.3,0.9-0.7,1.8-1,2.7c-1.1,3.3-3.5,4.8-6.9,4.8c-0.7,0-1.4,0-2.1,0c-13.2,0-26.3,0-39.5,0
			c-0.9,0-2.4,0.5-2.6,1c-0.2,0.9,0.1,2.2,0.8,3c0.7,0.8,1.9,1.4,2.9,1.7c1,0.3,2.2,0.4,3.3,0.4c14.2,0,28.3,0,42.5,0
			c3.7,0,4.8-0.8,5.9-4.3c4.5-14.8,9-29.6,13.5-44.4C76.6-0.8,76.7-1.9,77-3.1z M54.1,12.5c1.7,0,2.7-0.6,3.1-2.2
			c0.1-0.6,0.4-1.1,0.6-1.7c0.5-1.7,0.2-2.1-1.5-2.1c-9.2,0-18.4,0-27.6,0c-1.5,0-2.4,0.7-2.8,2.1c-0.2,0.6-0.4,1.2-0.6,1.7
			C24.7,12,25,12.5,27,12.5L54.1,12.5z M46.4-5.8c-4.6,0-9.1,0-13.7,0c-1.5,0-2.5,0.6-2.9,2.1c-0.2,0.6-0.4,1.1-0.6,1.7
			c-0.6,1.9-0.3,2.3,1.6,2.3c9.1,0,18.2,0,27.3,0c1.5,0,2.5-0.6,2.9-2.1c0.2-0.6,0.4-1.2,0.6-1.7c0.6-1.9,0.3-2.3-1.6-2.3
			C55.5-5.8,50.9-5.8,46.4-5.8z"/>
	</g>
</g>
<g id="Calque_4" class="st0">
	<g id="XMLID_65_" class="st1">
		<g id="XMLID_113_">
			<path id="XMLID_114_" class="st3" d="M1.7,55.1c0-24.3,0-48.6,0-72.9c24.3,0,48.6,0,72.9,0c0,24.3,0,48.6,0,72.9
				C50.3,55.1,26.1,55.1,1.7,55.1z M23.2-9c0.4,0.6,0.7,1.1,1,1.5C27-3.7,29.8,0,32.6,3.7c0.8,1,0.9,1.9,0.4,3
				c-3.2,9-6.3,18-9.5,26.9c-0.4,1.2-0.2,1.8,0.7,2.6c3.4,3.2,6.8,6.4,10.1,9.7c1.3,1.2,2.5,2.4,3.9,3.7c5-4.8,9.8-9.4,14.6-14.1
				c0.3-0.3,0.3-1.1,0.1-1.6c-3.2-9.2-6.4-18.4-9.6-27.5c-0.3-1-0.3-1.7,0.4-2.5c2.1-2.6,4-5.3,6-8c1.2-1.6,2.3-3.1,3.6-4.9
				C43.1-9,33.3-9,23.2-9z"/>
		</g>
	</g>
</g>
<g id="Calque_5" class="st0">
	<g id="XMLID_70_" class="st1">
		<path id="XMLID_1611_" class="st2" d="M8.2,39.2c0.4-0.6,0.6-1.2,1-1.8c1.3-1.7,2.6-3.3,3.9-5.1c0.3-0.4,0.2-1.1,0.2-1.7
			c0-0.4-0.4-0.7-0.5-1.1c-0.4-2.5-2-3.1-4.3-3.2c-1.6-0.1-3.2-0.5-4.8-0.6c-1.3-0.2-2-0.8-2-2.2c0-3.2,0-6.5,0-9.7
			c0-1.4,0.7-2.1,2.1-2.3c2.3-0.3,4.6-0.6,6.9-1c0.6-0.1,1-0.7,1.5-1.2c0.1-0.1,0.1-0.4,0.2-0.6C14,6.5,13.3,4.7,11.6,3
			c-1-1-1.8-2.3-2.8-3.4C8-1.3,7.9-2.3,8.7-3.2c2.5-2.5,5-5,7.5-7.5c1-1,2-0.9,3.1,0c1.7,1.4,3.5,2.8,5.3,4.1
			c0.5,0.3,1.3,0.3,1.9,0.2c2.7-0.5,3.9-2.1,3.8-4.9c0-1.4,0.4-2.9,0.7-4.3c0.4-1.9,0.7-2.2,2.6-2.2c3,0,6.1,0,9.1,0
			c1.8,0,2.3,0.4,2.5,2.1c0.3,2.3,0.7,4.5,1,6.8c0.1,0.9,0.6,1.3,1.4,1.8c2.4,1.4,4.2,1,6.1-0.9c1.1-1.1,2.4-1.8,3.6-2.8
			c1-0.8,1.9-0.7,2.7,0.1c2.4,2.4,4.7,4.8,7.1,7.1c1.1,1.2,1,2.3,0,3.5c-1.3,1.6-2.5,3.3-3.8,4.9c-0.6,0.7-0.7,1.3-0.2,2
			c0.1,0.2,0.3,0.4,0.3,0.7c0.4,2.6,2.2,3.4,4.6,3.5c1.6,0.1,3.1,0.5,4.7,0.6c1.3,0.2,2,0.9,2,2.2c0,3.2,0,6.4,0,9.6
			c0,1.5-0.7,2.2-2.1,2.4c-2.3,0.3-4.5,0.7-6.8,1c-0.9,0.1-1.4,0.4-1.6,1.3c0,0.1-0.1,0.3-0.2,0.4c-1.7,2.2-0.8,4,0.9,5.8
			c1,1.1,1.8,2.3,2.8,3.4c0.7,0.9,0.9,1.9,0,2.7c-2.4,2.5-4.9,5-7.4,7.4c-1.1,1.1-2.2,1-3.4,0c-1.6-1.4-3.4-2.6-5-4
			c-0.7-0.5-1.2-0.6-2-0.3c-2.7,0.7-3.9,2.2-3.8,5c0,1.5-0.5,3-0.7,4.5c-0.2,1.4-1,2.1-2.5,2.1c-3.1-0.1-6.2,0-9.3,0
			c-1.8,0-2.2-0.4-2.5-2.2c-0.3-2.3-0.7-4.5-1-6.8c-0.1-0.9-0.6-1.3-1.4-1.7c-2.4-1.4-4.2-1-6.1,0.9c-1.1,1.1-2.4,1.9-3.6,2.8
			c-0.9,0.7-1.8,0.7-2.6-0.1c-2.4-2.4-4.9-4.9-7.3-7.3C8.8,40.4,8.6,39.8,8.2,39.2z M50.3,19.5c0.6-6.5-4.5-12.4-11-13
			c-7.1-0.6-13,5-13.3,11.6c-0.3,6.3,4.7,12.1,11.4,12.7C44.2,31.4,50.2,25.7,50.3,19.5z"/>
	</g>
</g>
<g id="Calque_6" class="st0">
	<g id="XMLID_71_" class="st1">
		<path id="XMLID_1646_" class="st4" d="M23,37.7c-0.5-0.4-0.8-0.7-1.1-1c-3.1-3.1-6.2-6.2-9.3-9.2c-1.8-1.8-3.6-1.8-5.4,0
			c-1.5,1.4-2.9,2.9-4.3,4.3c-1.6,1.7-1.7,3.6,0,5.2c5.7,5.8,11.5,11.5,17.3,17.3c0.4,0.4,1,0.8,1.6,1c1.5,0.5,2.7-0.1,3.8-1.1
			c9.9-9.9,19.9-19.9,29.8-29.8c0.1-0.1,0.2-0.2,0.3-0.3c1.4-1.6,1.4-3.5-0.1-5.1c-1.4-1.4-2.7-2.7-4.1-4.1c-2.1-2.1-3.8-2.1-5.9,0
			C38.4,22,31.1,29.3,23.8,36.6C23.5,36.9,23.3,37.3,23,37.7z"/>
		<path id="XMLID_1469_" class="st4" d="M23,37.7c0.3-0.4,0.5-0.8,0.8-1c7.3-7.3,14.6-14.6,21.9-21.9c2-2,3.8-2,5.9,0
			c1.4,1.4,2.7,2.7,4.1,4.1c1.5,1.5,1.6,3.4,0.1,5.1c-0.1,0.1-0.2,0.2-0.3,0.3c-9.9,9.9-19.9,19.9-29.8,29.8
			c-1.1,1.1-2.3,1.7-3.8,1.1c-0.6-0.2-1.2-0.6-1.6-1C14.4,48.5,8.7,42.7,2.9,36.9c-1.6-1.6-1.6-3.6,0-5.2c1.4-1.5,2.9-2.9,4.3-4.3
			c1.8-1.7,3.6-1.7,5.4,0c3.1,3.1,6.2,6.2,9.3,9.2C22.2,36.9,22.5,37.2,23,37.7z"/>
	</g>
</g>
<g id="Calque_7" class="st0">
	<g id="XMLID_111_" class="st1">
		<path id="XMLID_2024_" class="st3" d="M68.8,18.2c0-6.3-3.5-14.4-10.4-21.1C54-7.1,51.1-7.7,48.4-5c-2.8,2.8-2,5.7,2.5,10
			c7.9,7.5,9.3,19.4,3.4,28.6c-5.8,9-17.1,12.6-27.1,8.8C16.9,38.5,11,28.1,13,17.4c1.1-5.8,4.3-10.1,8.5-14.1
			c1.4-1.3,2.1-4.4,1.6-6.3c-0.4-1.5-3-3.1-4.8-3.3c-1.7-0.1-3.7,1.4-5.2,2.6C1.5,6.1-1.6,23,5.4,36.8c7,13.8,22.9,21.1,37.9,17.3
			C58.2,50.4,68.7,37,68.8,18.2z M40.6,2.1c0-4.7,0-9.3,0-14c0-3.5-1.8-5.6-5.2-5.9c-3-0.3-5.5,2.3-5.5,6c-0.1,9.1,0,18.1,0,27.2
			c0,3.5,1.8,5.6,5.2,6c3,0.4,5.5-2.4,5.5-6C40.7,10.9,40.6,6.5,40.6,2.1z"/>
		<path id="XMLID_1808_" class="st3" d="M68.8,18.2c-0.1,18.8-10.6,32.2-25.5,36c-14.9,3.7-30.9-3.6-37.9-17.3
			C-1.6,23,1.5,6.1,13.2-3.8c1.5-1.2,3.5-2.7,5.2-2.6c1.8,0.1,4.4,1.8,4.8,3.3c0.5,1.9-0.2,5-1.6,6.3c-4.2,4-7.5,8.3-8.5,14.1
			C11,28.1,16.9,38.5,27.1,42.5c10,3.9,21.3,0.2,27.1-8.8c6-9.2,4.5-21.1-3.4-28.6c-4.5-4.3-5.3-7.3-2.5-10c2.7-2.7,5.7-2.2,10,2.1
			C65.3,3.7,68.7,11.9,68.8,18.2z"/>
		<path id="XMLID_1805_" class="st3" d="M40.6,2.1c0,4.4,0.1,8.8,0,13.2c-0.1,3.6-2.5,6.3-5.5,6c-3.4-0.4-5.2-2.5-5.2-6
			c0-9.1-0.1-18.1,0-27.2c0-3.6,2.5-6.3,5.5-6c3.4,0.4,5.2,2.5,5.2,5.9C40.6-7.2,40.6-2.5,40.6,2.1z"/>
	</g>
</g>
<g id="Calque_8">
	<g id="XMLID_295_">
		<path id="XMLID_1933_" class="st5" d="M35.1,54.4c-8.9,0-17.8,0-26.7,0c-4.4,0-6.7-2.4-6.7-6.7c0-13,0-26.1,0-39.1
			c0-4.5,2.3-6.8,6.8-6.8c17.8,0,35.6,0,53.3,0c4.5,0,6.8,2.3,6.8,6.8c0,13,0,26,0,39c0,4.5-2.3,6.8-6.9,6.8
			C52.8,54.4,44,54.4,35.1,54.4z M35.1,6.5c-9,0-17.9,0-26.9,0C6.7,6.5,6.4,7,6.5,8.5c0.2,4.1,2.2,7.3,5.3,9.8
			c4.9,3.9,9.9,7.8,14.8,11.7c2,1.5,3.9,3.1,6,4.5c1.6,1.1,3.4,1,5.1,0c1.1-0.7,2.2-1.4,3.1-2.2c5.7-4.6,11.5-9,17.2-13.8
			c1.8-1.5,3.2-3.5,4.6-5.4c1-1.4,1.3-3,1.3-4.8c-0.1-1.5-0.4-1.9-1.9-1.9C53,6.5,44.1,6.5,35.1,6.5z M6.5,20c0,0.4-0.1,0.6-0.1,0.9
			c0,9,0,17.9,0,26.9c0,1.5,0.4,1.8,1.9,1.8c17.8,0,35.6,0,53.4,0c1.8,0,2.1-0.3,2.1-2.1c0-8.8,0-17.6,0-26.4c0-0.4-0.1-0.7-0.1-1.2
			c-1.2,1-2.2,2-3.2,2.8c-3.8,3-7.6,6-11.5,9c-2.6,2.1-5.2,4.3-7.9,6.2c-2.9,2-6.2,2.9-9.7,1.3c-1.5-0.7-3.1-1.6-4.4-2.6
			C20.2,31.1,13.4,25.6,6.5,20z"/>
	</g>
</g>
</svg>
