<?xml version="1.0" encoding="utf-8"?>
<!-- Generator: Adobe Illustrator 19.0.0, SVG Export Plug-In . SVG Version: 6.00 Build 0)  -->
<svg version="1.1" xmlns="http://www.w3.org/2000/svg" xmlns:xlink="http://www.w3.org/1999/xlink" x="0px" y="0px"
	 viewBox="0 0 56.5 65.7" style="enable-background:new 0 0 56.5 65.7;" xml:space="preserve">
<style type="text/css">
	.st0{display:none;}
	.st1{display:inline;}
	.st2{fill:#9DC6B3;}
	.st3{fill:#FFFFFF;}
	.st4{fill:#6ABD45;}
	.st5{fill:#FFFFFF;stroke:#FFFFFF;stroke-width:0.5;stroke-miterlimit:10;}
	.st6{fill:#D5DF24;}
</style>
<g id="tbl" class="st0">
	<g id="XMLID_103_" class="st1">
		<path id="XMLID_201_" class="st2" d="M50,64.6c-11.5,0-23,0-34.5,0c-8.9,0-13.8-5-13.9-13.9C1.4,38.2,3.9,26.6,11.9,16.6
			C20.6,5.7,31.9-0.5,45.8-1.8c24.4-2.3,43.3,13.6,49.7,31.1c2.8,7.7,3.6,15.6,3.1,23.7c-0.5,7.2-5.7,11.6-13,11.6
			C73.7,64.6,61.9,64.6,50,64.6z M50.1,58.3c11.7,0,23.4,0,35,0c4.6,0,7.2-2.3,7.2-7c0-4,0-8.1-0.6-12C87.9,13.8,61.3-2.4,36.9,6
			C15.8,13.3,6.4,31.8,8,52.4c0.3,3.9,2.9,6,6.8,6C26.5,58.4,38.3,58.3,50.1,58.3z"/>
		<path id="XMLID_140_" class="st2" d="M50.1,55c-4.1,0-7.6-2.5-9.1-6.2c-1.4-3.6-0.4-7.7,2.4-10.5c5.5-5.8,10.9-11.6,16.4-17.5
			c2-2.1,3.7-4.5,5.7-6.5c0.7-0.7,2-0.8,3.1-1.1c0.2,1.1,0.8,2.3,0.5,3.2C66.5,24.6,63.6,32.8,61,41c-0.5,1.6-0.8,3.2-1,4.9
			C59.5,51.1,55.3,55,50.1,55z M50.1,49.9c2.7,0,4.7-1.9,4.7-4.5c0.1-2.6-2.1-4.9-4.7-4.9c-2.6,0-4.8,2.3-4.7,4.9
			C45.5,48,47.5,49.9,50.1,49.9z"/>
		<path id="XMLID_139_" class="st2" d="M26.3,27.7c0.1,2.3-1.7,4.2-3.9,4.3c-2.1,0.1-4-1.8-4.1-4.1c0-2.3,1.4-3.8,3.7-3.9
			C24.6,23.9,26.3,25.3,26.3,27.7z"/>
		<path id="XMLID_138_" class="st2" d="M81.9,27.9c0,2.2-1.9,4.1-4.1,4.1c-2.2-0.1-3.9-2-3.9-4.3c0.1-2.3,1.6-3.7,3.9-3.7
			C80.4,24,81.9,25.5,81.9,27.9z"/>
		<path id="XMLID_107_" class="st2" d="M50,7.9c2.1-0.1,4.2,2,4.3,4c0,2-1.8,3.8-3.9,3.9c-2.3,0.1-4.3-1.6-4.4-3.8
			C45.9,10,47.9,7.9,50,7.9z"/>
		<path id="XMLID_106_" class="st2" d="M22,43.8c0,2.5-1.5,4-4,4c-2.1,0-4-1.7-4.1-3.8c-0.1-2.2,1.8-4.1,4-4.2
			C20.2,39.7,21.9,41.4,22,43.8z"/>
		<path id="XMLID_105_" class="st2" d="M86.3,43.8c0,2.1-1.9,3.9-4.2,3.9c-2.3,0-3.8-1.5-3.8-3.8c0-2.4,1.6-4.1,3.9-4.1
			C84.4,39.8,86.3,41.7,86.3,43.8z"/>
		<path id="XMLID_104_" class="st2" d="M38.1,16.1c0.1,2.2-1.8,4.2-4,4.1c-2.1,0-3.9-1.8-3.9-3.9c-0.1-2.3,1.4-3.9,3.7-4
			C36.2,12.2,38,13.8,38.1,16.1z"/>
	</g>
</g>
<g id="agenda" class="st0">
	<g id="XMLID_92_" class="st1">
		<g id="XMLID_191_">
			<path id="XMLID_192_" class="st3" d="M58.8,1.8c1.7,0,3.3,0,4.9,0c3.4,0,5.6,2.1,5.6,5.6c0,17.3,0,34.5,0,51.8
				c0,3.5-2.2,5.6-5.7,5.6c-18.9,0-37.8,0-56.7,0c-3.6,0-5.8-2.1-5.8-5.7c0-17.2,0-34.4,0-51.7c0-3.5,2.2-5.6,5.7-5.6
				c1.5,0,3.1,0,4.8,0c0-1.1,0-2.2,0-3.3c0-4.6,2.6-7.2,7.3-7.2c1.2,0,2.5,0,3.6,0.3c2.6,0.6,4.5,3,4.7,5.6c0.1,1.5,0,3,0,4.5
				c5.4,0,10.5,0,15.9,0c0-1,0-1.9,0-2.9c0-5.1,2.5-7.6,7.6-7.6c1.9,0,3.9,0,5.5,1.3c1.8,1.4,2.7,3.3,2.7,5.6
				C58.7-0.7,58.8,0.5,58.8,1.8z M49.5,45c0-4.4,0-8.7,0-13c-4.4,0-8.7,0-13,0c0,4.4,0,8.7,0,13C40.9,45,45.2,45,49.5,45z M33.8,32
				c-4.4,0-8.7,0-13,0c0,4.4,0,8.7,0,13c4.4,0,8.6,0,13,0C33.8,40.6,33.8,36.3,33.8,32z M52.3,32c0,4.4,0,8.7,0,13
				c3.9,0,7.8,0,11.7,0c0-4.4,0-8.7,0-13C60,32,56.2,32,52.3,32z M6.3,45c4,0,7.8,0,11.7,0c0-4.4,0-8.7,0-13c-3.9,0-7.8,0-11.7,0
				C6.3,36.3,6.3,40.6,6.3,45z M36.5,29.3c4.4,0,8.7,0,13,0c0-3.9,0-7.8,0-11.7c-4.4,0-8.7,0-13,0C36.5,21.5,36.5,25.3,36.5,29.3z
				 M20.8,29.2c4.4,0,8.7,0,13,0c0-4,0-7.8,0-11.7c-4.4,0-8.6,0-13,0C20.8,21.5,20.8,25.3,20.8,29.2z M20.8,59.4c4.4,0,8.6,0,13,0
				c0-3.9,0-7.8,0-11.7c-4.4,0-8.6,0-13,0C20.8,51.7,20.8,55.5,20.8,59.4z M36.5,59.4c4.4,0,8.7,0,13,0c0-3.9,0-7.8,0-11.7
				c-4.4,0-8.7,0-13,0C36.5,51.7,36.5,55.5,36.5,59.4z M6.4,29.3c3.9,0,7.8,0,11.7,0c0-3.9,0-7.8,0-11.7c-3.9,0-7.8,0-11.7,0
				C6.4,21.5,6.4,25.4,6.4,29.3z M18,59.4c0-3.9,0-7.8,0-11.7c-3.9,0-7.8,0-11.7,0c0,3.9,0,7.8,0,11.7C10.3,59.4,14.1,59.4,18,59.4z
				 M52.3,17.5c0,4,0,7.8,0,11.7c3.9,0,7.8,0,11.7,0c0-3.9,0-7.8,0-11.7C60.1,17.5,56.2,17.5,52.3,17.5z M52.3,59.4
				c3.9,0,7.8,0,11.7,0c0-3.9,0-7.8,0-11.7c-3.9,0-7.8,0-11.7,0C52.3,51.6,52.3,55.5,52.3,59.4z M22.1,3.8
				C22.1,3.8,22.1,3.8,22.1,3.8c0-1.4,0-2.7,0-4.1c0-3.3,0-3.3-3.2-3.3c-1.7,0-2,0.4-2.1,2.1c0,3,0,6,0,9c0,3.4,0,3.4,3.4,3.3
				c1.4,0,1.8-0.4,1.8-1.8C22.1,7.4,22.1,5.6,22.1,3.8z M53.6,3.8c0-1.4,0-2.7,0-4.1c0-3.3,0-3.3-3.3-3.2c-1.6,0-2,0.4-2,2
				c0,3.1,0,6.1,0,9.2c0,3.3,0,3.3,3.3,3.3c1.5,0,1.9-0.4,1.9-2C53.6,7.3,53.6,5.5,53.6,3.8z"/>
		</g>
	</g>
</g>
<g id="modules" class="st0">
	<g id="XMLID_86_" class="st1">
		<path id="XMLID_87_" class="st2" d="M77,6.1c2.2,1,3.5,2.6,3.6,4.9c0.1,1.2-0.1,2.5-0.5,3.7C76,28.5,71.8,42.4,67.6,56.2
			c-1.7,5.4-5.2,8-10.9,8c-14,0-27.9,0-41.9,0c-5.9,0-11.3-4.1-12.6-9.7c-0.4-1.9,0.1-4,0.1-6c0-1.2-0.1-2.3,0.1-3.5
			c0.1-0.8,0.4-1.6,0.8-2.4c1.4-2.9,2.9-5.8,4.2-8.7c0.4-1,0.2-2.2,0.4-3.3c0.2-0.8,0.4-1.6,0.8-2.2c2.2-3.7,4.2-7.4,3.9-11.9
			c0-0.7,0.5-1.5,1-2.1c2.6-2.7,3.6-6.1,4.4-9.7c0.1-0.5-0.2-1-0.1-1.5c0.1-0.8,0.2-1.6,0.6-2.2c1-2,2.3-3.9,3.3-5.9
			c1.6-3.3,2.7-4,6.4-3.7c0.9,0.1,1.9-0.2,2.9-0.2c11.8,0,23.7,0,35.5,0c3.7,0,6.3,2.1,6.8,5.5c0.1,1.1,0,2.3-0.3,3.4
			C68.4,15,63.9,29.7,59.4,44.4c-0.3,0.9-0.7,1.8-1,2.7c-1.1,3.3-3.5,4.8-6.9,4.8c-0.7,0-1.4,0-2.1,0c-13.2,0-26.3,0-39.5,0
			c-0.9,0-2.4,0.5-2.6,1c-0.2,0.9,0.1,2.2,0.8,3c0.7,0.8,1.9,1.4,2.9,1.7c1,0.3,2.2,0.4,3.3,0.4c14.2,0,28.3,0,42.5,0
			c3.7,0,4.8-0.8,5.9-4.3c4.5-14.8,9-29.6,13.5-44.4C76.6,8.4,76.7,7.3,77,6.1z M54.1,21.7c1.7,0,2.7-0.6,3.1-2.2
			c0.1-0.6,0.4-1.1,0.6-1.7c0.5-1.7,0.2-2.1-1.5-2.1c-9.2,0-18.4,0-27.6,0c-1.5,0-2.4,0.7-2.8,2.1c-0.2,0.6-0.4,1.2-0.6,1.7
			c-0.6,1.9-0.3,2.3,1.6,2.3L54.1,21.7z M46.4,3.4c-4.6,0-9.1,0-13.7,0c-1.5,0-2.5,0.6-2.9,2.1c-0.2,0.6-0.4,1.1-0.6,1.7
			c-0.6,1.9-0.3,2.3,1.6,2.3c9.1,0,18.2,0,27.3,0c1.5,0,2.5-0.6,2.9-2.1c0.2-0.6,0.4-1.2,0.6-1.7c0.6-1.9,0.3-2.3-1.6-2.3
			C55.5,3.4,50.9,3.4,46.4,3.4z"/>
	</g>
</g>
<g id="prof" class="st0">
	<g id="XMLID_65_" class="st1">
		<g id="XMLID_113_">
			<path id="XMLID_114_" class="st3" d="M1.7,64.3c0-24.3,0-48.6,0-72.9c24.3,0,48.6,0,72.9,0c0,24.3,0,48.6,0,72.9
				C50.3,64.3,26.1,64.3,1.7,64.3z M23.2,0.2c0.4,0.6,0.7,1.1,1,1.5c2.8,3.7,5.5,7.5,8.4,11.2c0.8,1,0.9,1.9,0.4,3
				c-3.2,9-6.3,18-9.5,26.9c-0.4,1.2-0.2,1.8,0.7,2.6c3.4,3.2,6.8,6.4,10.1,9.7c1.3,1.2,2.5,2.4,3.9,3.7c5-4.8,9.8-9.4,14.6-14.1
				c0.3-0.3,0.3-1.1,0.1-1.6c-3.2-9.2-6.4-18.4-9.6-27.5c-0.3-1-0.3-1.7,0.4-2.5c2.1-2.6,4-5.3,6-8c1.2-1.6,2.3-3.1,3.6-4.9
				C43.1,0.2,33.3,0.2,23.2,0.2z"/>
		</g>
	</g>
</g>
<g id="parametres" class="st0">
	<g id="XMLID_70_" class="st1">
		<path id="XMLID_1611_" class="st2" d="M8.2,48.4c0.4-0.6,0.6-1.2,1-1.8c1.3-1.7,2.6-3.3,3.9-5.1c0.3-0.4,0.2-1.1,0.2-1.7
			c0-0.4-0.4-0.7-0.5-1.1c-0.4-2.5-2-3.1-4.3-3.2c-1.6-0.1-3.2-0.5-4.8-0.6c-1.3-0.2-2-0.8-2-2.2c0-3.2,0-6.5,0-9.7
			c0-1.4,0.7-2.1,2.1-2.3c2.3-0.3,4.6-0.6,6.9-1c0.6-0.1,1-0.7,1.5-1.2c0.1-0.1,0.1-0.4,0.2-0.6c1.6-2.2,0.9-3.9-0.8-5.7
			c-1-1-1.8-2.3-2.8-3.4C8,7.9,7.9,6.9,8.7,6.1c2.5-2.5,5-5,7.5-7.5c1-1,2-0.9,3.1,0c1.7,1.4,3.5,2.8,5.3,4.1
			c0.5,0.3,1.3,0.3,1.9,0.2c2.7-0.5,3.9-2.1,3.8-4.9c0-1.4,0.4-2.9,0.7-4.3c0.4-1.9,0.7-2.2,2.6-2.2c3,0,6.1,0,9.1,0
			c1.8,0,2.3,0.4,2.5,2.1c0.3,2.3,0.7,4.5,1,6.8c0.1,0.9,0.6,1.3,1.4,1.8c2.4,1.4,4.2,1,6.1-0.9c1.1-1.1,2.4-1.8,3.6-2.8
			c1-0.8,1.9-0.7,2.7,0.1c2.4,2.4,4.7,4.8,7.1,7.1c1.1,1.2,1,2.3,0,3.5c-1.3,1.6-2.5,3.3-3.8,4.9c-0.6,0.7-0.7,1.3-0.2,2
			c0.1,0.2,0.3,0.4,0.3,0.7c0.4,2.6,2.2,3.4,4.6,3.5c1.6,0.1,3.1,0.5,4.7,0.6c1.3,0.2,2,0.9,2,2.2c0,3.2,0,6.4,0,9.6
			c0,1.5-0.7,2.2-2.1,2.4c-2.3,0.3-4.5,0.7-6.8,1c-0.9,0.1-1.4,0.4-1.6,1.3c0,0.1-0.1,0.3-0.2,0.4c-1.7,2.2-0.8,4,0.9,5.8
			c1,1.1,1.8,2.3,2.8,3.4c0.7,0.9,0.9,1.9,0,2.7c-2.4,2.5-4.9,5-7.4,7.4c-1.1,1.1-2.2,1-3.4,0c-1.6-1.4-3.4-2.6-5-4
			c-0.7-0.5-1.2-0.6-2-0.3c-2.7,0.7-3.9,2.2-3.8,5c0,1.5-0.5,3-0.7,4.5c-0.2,1.4-1,2.1-2.5,2.1c-3.1-0.1-6.2,0-9.3,0
			c-1.8,0-2.2-0.4-2.5-2.2c-0.3-2.3-0.7-4.5-1-6.8c-0.1-0.9-0.6-1.3-1.4-1.7c-2.4-1.4-4.2-1-6.1,0.9c-1.1,1.1-2.4,1.9-3.6,2.8
			c-0.9,0.7-1.8,0.7-2.6-0.1c-2.4-2.4-4.9-4.9-7.3-7.3C8.8,49.6,8.6,49,8.2,48.4z M50.3,28.7c0.6-6.5-4.5-12.4-11-13
			c-7.1-0.6-13,5-13.3,11.6c-0.3,6.3,4.7,12.1,11.4,12.7C44.2,40.6,50.2,34.9,50.3,28.7z"/>
	</g>
</g>
<g id="check" class="st0">
	<g id="XMLID_71_" class="st1">
		<path id="XMLID_1646_" class="st4" d="M23,46.9c-0.5-0.4-0.8-0.7-1.1-1c-3.1-3.1-6.2-6.2-9.3-9.2c-1.8-1.8-3.6-1.8-5.4,0
			c-1.5,1.4-2.9,2.9-4.3,4.3c-1.6,1.7-1.7,3.6,0,5.2c5.7,5.8,11.5,11.5,17.3,17.3c0.4,0.4,1,0.8,1.6,1c1.5,0.5,2.7-0.1,3.8-1.1
			c9.9-9.9,19.9-19.9,29.8-29.8c0.1-0.1,0.2-0.2,0.3-0.3c1.4-1.6,1.4-3.5-0.1-5.1c-1.4-1.4-2.7-2.7-4.1-4.1c-2.1-2.1-3.8-2.1-5.9,0
			c-7.3,7.3-14.6,14.6-21.9,21.9C23.5,46.1,23.3,46.5,23,46.9z"/>
		<path id="XMLID_1469_" class="st4" d="M23,46.9c0.3-0.4,0.5-0.8,0.8-1c7.3-7.3,14.6-14.6,21.9-21.9c2-2,3.8-2,5.9,0
			c1.4,1.4,2.7,2.7,4.1,4.1c1.5,1.5,1.6,3.4,0.1,5.1c-0.1,0.1-0.2,0.2-0.3,0.3c-9.9,9.9-19.9,19.9-29.8,29.8
			c-1.1,1.1-2.3,1.7-3.8,1.1c-0.6-0.2-1.2-0.6-1.6-1C14.4,57.7,8.7,51.9,2.9,46.1c-1.6-1.6-1.6-3.6,0-5.2c1.4-1.5,2.9-2.9,4.3-4.3
			c1.8-1.7,3.6-1.7,5.4,0c3.1,3.1,6.2,6.2,9.3,9.2C22.2,46.2,22.5,46.4,23,46.9z"/>
	</g>
</g>
<g id="deconnexion" class="st0">
	<g id="XMLID_111_" class="st1">
		<path id="XMLID_2024_" class="st3" d="M68.8,27.4c0-6.3-3.5-14.4-10.4-21.1c-4.4-4.2-7.3-4.8-10-2.1c-2.8,2.8-2,5.7,2.5,10
			c7.9,7.5,9.3,19.4,3.4,28.6c-5.8,9-17.1,12.6-27.1,8.8C16.9,47.7,11,37.3,13,26.6c1.1-5.8,4.3-10.1,8.5-14.1
			c1.4-1.3,2.1-4.4,1.6-6.3c-0.4-1.5-3-3.1-4.8-3.3c-1.7-0.1-3.7,1.4-5.2,2.6C1.5,15.3-1.6,32.2,5.4,46c7,13.8,22.9,21.1,37.9,17.3
			C58.2,59.6,68.7,46.2,68.8,27.4z M40.6,11.3c0-4.7,0-9.3,0-14c0-3.5-1.8-5.6-5.2-5.9c-3-0.3-5.5,2.3-5.5,6c-0.1,9.1,0,18.1,0,27.2
			c0,3.5,1.8,5.6,5.2,6c3,0.4,5.5-2.4,5.5-6C40.7,20.1,40.6,15.7,40.6,11.3z"/>
		<path id="XMLID_1808_" class="st3" d="M68.8,27.4c-0.1,18.8-10.6,32.2-25.5,36C28.4,67.1,12.4,59.8,5.4,46
			c-7-13.8-3.9-30.7,7.8-40.6c1.5-1.2,3.5-2.7,5.2-2.6c1.8,0.1,4.4,1.8,4.8,3.3c0.5,1.9-0.2,5-1.6,6.3c-4.2,4-7.5,8.3-8.5,14.1
			C11,37.3,16.9,47.7,27.1,51.7c10,3.9,21.3,0.2,27.1-8.8c6-9.2,4.5-21.1-3.4-28.6c-4.5-4.3-5.3-7.3-2.5-10c2.7-2.7,5.7-2.2,10,2.1
			C65.3,13,68.7,21.1,68.8,27.4z"/>
		<path id="XMLID_1805_" class="st3" d="M40.6,11.3c0,4.4,0.1,8.8,0,13.2c-0.1,3.6-2.5,6.3-5.5,6c-3.4-0.4-5.2-2.5-5.2-6
			c0-9.1-0.1-18.1,0-27.2c0-3.6,2.5-6.3,5.5-6c3.4,0.4,5.2,2.5,5.2,5.9C40.6,2,40.6,6.7,40.6,11.3z"/>
	</g>
</g>
<g id="mail" class="st0">
	<g id="XMLID_295_" class="st1">
		<path id="XMLID_1933_" class="st5" d="M35.1,63.6c-8.9,0-17.8,0-26.7,0c-4.4,0-6.7-2.4-6.7-6.7c0-13,0-26.1,0-39.1
			C1.7,13.3,4,11,8.5,11c17.8,0,35.6,0,53.3,0c4.5,0,6.8,2.3,6.8,6.8c0,13,0,26,0,39c0,4.5-2.3,6.8-6.9,6.8
			C52.8,63.6,44,63.6,35.1,63.6z M35.1,15.7c-9,0-17.9,0-26.9,0c-1.5,0-1.9,0.5-1.8,1.9c0.2,4.1,2.2,7.3,5.3,9.8
			c4.9,3.9,9.9,7.8,14.8,11.7c2,1.5,3.9,3.1,6,4.5c1.6,1.1,3.4,1,5.1,0c1.1-0.7,2.2-1.4,3.1-2.2c5.7-4.6,11.5-9,17.2-13.8
			c1.8-1.5,3.2-3.5,4.6-5.4c1-1.4,1.3-3,1.3-4.8c-0.1-1.5-0.4-1.9-1.9-1.9C53,15.7,44.1,15.7,35.1,15.7z M6.5,29.2
			c0,0.4-0.1,0.6-0.1,0.9c0,9,0,17.9,0,26.9c0,1.5,0.4,1.8,1.9,1.8c17.8,0,35.6,0,53.4,0c1.8,0,2.1-0.3,2.1-2.1c0-8.8,0-17.6,0-26.4
			c0-0.4-0.1-0.7-0.1-1.2c-1.2,1-2.2,2-3.2,2.8c-3.8,3-7.6,6-11.5,9c-2.6,2.1-5.2,4.3-7.9,6.2c-2.9,2-6.2,2.9-9.7,1.3
			c-1.5-0.7-3.1-1.6-4.4-2.6C20.2,40.3,13.4,34.8,6.5,29.2z"/>
	</g>
</g>
<g id="oeil" class="st0">
	<g id="XMLID_361_" class="st1">
		<path id="XMLID_362_" class="st3" d="M40.3,64.2c-14.9-0.7-28.1-8.5-37.6-23c-1.5-2.3-1.5-4.6,0-6.9c19.7-30.6,60.2-30.5,79.8,0
			c1.5,2.3,1.4,4.6,0,6.9C74.7,54.8,58.3,64.2,40.3,64.2z M24.5,21.7c-5.1,2.6-9.3,5.8-12.7,10c-5.8,7.3-6,5.1-0.1,11.9
			c7.5,8.8,17.1,14.3,29,14.7C56.5,59,68,51.5,77,39.3c0.8-1.1,0.8-2-0.1-3c-3.5-3.6-6.8-7.4-10.5-10.9c-1.6-1.5-3.7-2.4-5.9-3.9
			c4.4,12.1,2.4,20.8-5.8,26.9c-7,5.3-16.6,5.4-23.8,0.4C22.5,42.9,20.5,34.5,24.5,21.7z M28.5,32.1c0.4,0.4,1.2,1.7,2.2,1.9
			c1.6,0.4,2.3-0.9,2.5-2.5c0.6-5.4,3.3-8.1,8.9-8.9c1.5-0.2,2.9-0.7,2.7-2.5c-0.2-1.9-1.7-2.2-3.3-2.1
			C34.7,18.3,28.8,24.4,28.5,32.1z"/>
	</g>
</g>
<g id="commentaires" class="st0">
	<g id="XMLID_252_" class="st1">
		<g id="XMLID_280_">
			<path id="XMLID_281_" class="st3" d="M38.1,53.8c-0.5,0-1.1,0-1.6-0.1c-3.1-0.8-5.5,0.5-7.9,2.4c-5.7,4.5-12.4,6.9-19.5,8.1
				c-0.9,0.1-1.7,0-2.2-0.8c-0.5-0.9-0.4-1.7,0.3-2.4c0.9-1,1.7-2,2.6-2.9c2.4-2.5,3.9-5.4,5-8.7c0.3-0.9,0.2-1.4-0.7-2
				c-3.7-2.2-6.8-5-9.3-8.6C-0.4,31,0.3,21,6.6,13.9C12.4,7.3,19.9,3.8,28.4,2.2c10.5-2,20.6-1.1,30.4,3.5c5.7,2.7,10.4,6.5,13.5,12
				c4.5,8.1,3,17.6-3.7,24.5c-5.9,6.1-13.3,9.3-21.5,10.7C44.2,53.5,41.1,53.5,38.1,53.8C38.1,53.8,38.1,53.9,38.1,53.8z M30.7,48.5
				c5,0.5,9,0,9,0c9.5-0.4,18.2-3.1,25.2-10.1c5.3-5.3,6.2-13.2,1.9-19.4c-3.1-4.4-7.4-7.3-12.3-9.3c-6.8-2.8-13.8-3.7-21.1-3
				c-7.5,0.8-14.3,3.1-20.2,7.9C4.9,21.4,4.2,31.6,12,39c2.4,2.3,5.3,3.9,8.1,5.7c0.9,0.6,1.3,1,0.9,2.1c-1.1,3.1-2.1,6.3-3.1,9.4
				c0.4-0.2,0.9-0.4,1.4-0.6c3.7-1.7,7.1-4,10.1-6.8C29.7,48.6,30.1,48.4,30.7,48.5z"/>
		</g>
	</g>
</g>
<g id="Calque_11">
	<g id="XMLID_248_">
		<path id="XMLID_249_" class="st6" d="M54.9,58c-1.4-0.2-2.6-0.3-3.7-0.5c-1-0.1-1.9-0.2-2.9-0.4c-0.5-0.1-0.8,0.1-1,0.6
			c-0.8,2.1-1.6,4.2-2.5,6.5c-0.3-0.5-0.6-0.8-0.8-1.2C41,57.9,38,52.8,35,47.7c-0.1-0.2-0.5-0.4-0.7-0.4c-1,0.2-1.8-0.1-2.6-0.5
			c-1.9-1.1-3.9-1.3-5.9-0.4c-0.8,0.3-1.6,0.9-2.4,0.9c-1.3-0.1-1.6,0.6-2,1.5c-2.3,4.9-4.7,9.8-7.1,14.6c-0.1,0.3-0.3,0.5-0.5,0.9
			c-0.2-0.2-0.4-0.4-0.5-0.6c-1.2-1.8-2.4-3.6-3.6-5.4c-0.3-0.4-0.6-0.6-1.1-0.6c-2.2,0.3-4.4,0.5-6.6,0.7c-0.2,0-0.4,0-0.8,0
			c0.4-0.9,0.8-1.7,1.2-2.5c2.7-5.2,5.3-10.5,8-15.7c0.6-1.1,0.3-2.2,0.1-3.3c-0.3-2.1-1.7-3.4-3.5-4.5c-1.5-0.9-2.2-2.5-1.2-4.3
			c0.8-1.5,1.4-3.1,1-4.9c-0.2-0.7-0.4-1.4-0.7-2.1c-1.3-2.3-0.7-3.9,1.3-5.1c2.2-1.3,3.2-3.2,3.3-5.8c0-2,1.2-3.4,3.3-3.5
			c2.7,0,4.8-1.1,6.2-3.5c1.2-2,2.7-2.3,4.7-1.3c1.2,0.6,2.5,1.2,3.9,0.9c1.1-0.2,2.1-0.6,3.1-1C33,1.6,34,1.3,35,2
			c0.6,0.4,1.1,1,1.5,1.6c0.9,1.3,2,2.5,3.6,2.9c0.8,0.2,1.6,0.4,2.5,0.4c2.4,0,3.3,1.7,3.3,3.5c0,2.7,1.3,4.6,3.5,6
			c1.8,1.1,2.1,2.7,1.2,4.6c-0.5,1-0.8,2.2-1,3.3c-0.2,1.2,0.4,2.4,0.9,3.5c1.2,2.3,0.5,3.9-1.4,5c-2.1,1.3-2.9,3-3.3,5.4
			c-0.3,1.7,0.5,2.9,1.1,4.1c2.4,4.5,4.8,8.9,7.2,13.4C54.6,56.4,54.7,57.1,54.9,58z M28.4,9.1c-8.3-0.1-15,6.6-15.1,14.9
			C13.2,32.5,20,39,28,39.2c8.7,0.2,15.4-6.9,15.4-14.8C43.5,15.8,36.9,9.1,28.4,9.1z"/>
		<path id="XMLID_265_" class="st6" d="M38.4,24c0.1,5.6-4.7,10.4-10.3,10.3c-5.6-0.1-10.2-4.6-10.2-10.3c0-5.9,4.7-10.4,10.4-10.4
			C33.7,13.7,38.5,18.3,38.4,24z"/>
	</g>
</g>
</svg>
