<?xml version="1.0" encoding="utf-8"?>
<!-- Generator: Adobe Illustrator 19.0.0, SVG Export Plug-In . SVG Version: 6.00 Build 0)  -->
<svg version="1.1" xmlns="http://www.w3.org/2000/svg" xmlns:xlink="http://www.w3.org/1999/xlink" x="0px" y="0px"
	 viewBox="0 0 76.4 76.2" style="enable-background:new 0 0 76.4 76.2;" xml:space="preserve">
<style type="text/css">
	.st0{display:none;}
	.st1{display:inline;}
	.st2{fill:#9DC6B3;}
	.st3{fill:#FFFFFF;}
</style>
<g id="Calque_1" class="st0">
	<g id="XMLID_103_" class="st1">
		<path id="XMLID_201_" class="st2" d="M50,75c-11.5,0-23,0-34.5,0C6.6,75,1.7,70,1.6,61.1C1.4,48.6,3.9,37,11.9,27.1
			C20.6,16.2,31.9,9.9,45.8,8.7c24.4-2.3,43.3,13.6,49.7,31.1c2.8,7.7,3.6,15.6,3.1,23.7c-0.5,7.2-5.7,11.6-13,11.6
			C73.7,75,61.9,75,50,75z M50.1,68.8c11.7,0,23.4,0,35,0c4.6,0,7.2-2.3,7.2-7c0-4,0-8.1-0.6-12C87.9,24.2,61.3,8,36.9,16.5
			C15.8,23.7,6.4,42.3,8,62.8c0.3,3.9,2.9,6,6.8,6C26.5,68.8,38.3,68.8,50.1,68.8z"/>
		<path id="XMLID_140_" class="st2" d="M50.1,65.5c-4.1,0-7.6-2.5-9.1-6.2c-1.4-3.6-0.4-7.7,2.4-10.5c5.5-5.8,10.9-11.6,16.4-17.5
			c2-2.1,3.7-4.5,5.7-6.5c0.7-0.7,2-0.8,3.1-1.1c0.2,1.1,0.8,2.3,0.5,3.2c-2.6,8.2-5.4,16.4-8.1,24.7c-0.5,1.6-0.8,3.2-1,4.9
			C59.5,61.6,55.3,65.5,50.1,65.5z M50.1,60.4c2.7,0,4.7-1.9,4.7-4.5c0.1-2.6-2.1-4.9-4.7-4.9c-2.6,0-4.8,2.3-4.7,4.9
			C45.5,58.5,47.5,60.4,50.1,60.4z"/>
		<path id="XMLID_139_" class="st2" d="M26.3,38.2c0.1,2.3-1.7,4.2-3.9,4.3c-2.1,0.1-4-1.8-4.1-4.1c0-2.3,1.4-3.8,3.7-3.9
			C24.6,34.3,26.3,35.8,26.3,38.2z"/>
		<path id="XMLID_138_" class="st2" d="M81.9,38.4c0,2.2-1.9,4.1-4.1,4.1c-2.2-0.1-3.9-2-3.9-4.3c0.1-2.3,1.6-3.7,3.9-3.7
			C80.4,34.4,81.9,36,81.9,38.4z"/>
		<path id="XMLID_107_" class="st2" d="M50,18.3c2.1-0.1,4.2,2,4.3,4c0,2-1.8,3.8-3.9,3.9c-2.3,0.1-4.3-1.6-4.4-3.8
			C45.9,20.5,47.9,18.4,50,18.3z"/>
		<path id="XMLID_106_" class="st2" d="M22,54.2c0,2.5-1.5,4-4,4c-2.1,0-4-1.7-4.1-3.8c-0.1-2.2,1.8-4.1,4-4.2
			C20.2,50.2,21.9,51.9,22,54.2z"/>
		<path id="XMLID_105_" class="st2" d="M86.3,54.3c0,2.1-1.9,3.9-4.2,3.9c-2.3,0-3.8-1.5-3.8-3.8c0-2.4,1.6-4.1,3.9-4.1
			C84.4,50.3,86.3,52.1,86.3,54.3z"/>
		<path id="XMLID_104_" class="st2" d="M38.1,26.5c0.1,2.2-1.8,4.2-4,4.1c-2.1,0-3.9-1.8-3.9-3.9c-0.1-2.3,1.4-3.9,3.7-4
			C36.2,22.6,38,24.2,38.1,26.5z"/>
	</g>
</g>
<g id="Calque_2" class="st0">
	<g id="XMLID_92_" class="st1">
		<g id="XMLID_191_">
			<path id="XMLID_192_" class="st3" d="M58.8,12.2c1.7,0,3.3,0,4.9,0c3.4,0,5.6,2.1,5.6,5.6c0,17.3,0,34.5,0,51.8
				c0,3.5-2.2,5.6-5.7,5.6c-18.9,0-37.8,0-56.7,0c-3.6,0-5.8-2.1-5.8-5.7c0-17.2,0-34.4,0-51.7c0-3.5,2.2-5.6,5.7-5.6
				c1.5,0,3.1,0,4.8,0c0-1.1,0-2.2,0-3.3c0-4.6,2.6-7.2,7.3-7.2c1.2,0,2.5,0,3.6,0.3c2.6,0.6,4.5,3,4.7,5.6c0.1,1.5,0,3,0,4.5
				c5.4,0,10.5,0,15.9,0c0-1,0-1.9,0-2.9c0-5.1,2.5-7.6,7.6-7.6c1.9,0,3.9,0,5.5,1.3c1.8,1.4,2.7,3.3,2.7,5.6
				C58.7,9.8,58.8,10.9,58.8,12.2z M49.5,55.5c0-4.4,0-8.7,0-13c-4.4,0-8.7,0-13,0c0,4.4,0,8.7,0,13C40.9,55.5,45.2,55.5,49.5,55.5z
				 M33.8,42.5c-4.4,0-8.7,0-13,0c0,4.4,0,8.7,0,13c4.4,0,8.6,0,13,0C33.8,51.1,33.8,46.8,33.8,42.5z M52.3,42.4c0,4.4,0,8.7,0,13
				c3.9,0,7.8,0,11.7,0c0-4.4,0-8.7,0-13C60,42.4,56.2,42.4,52.3,42.4z M6.3,55.5c4,0,7.8,0,11.7,0c0-4.4,0-8.7,0-13
				c-3.9,0-7.8,0-11.7,0C6.3,46.8,6.3,51.1,6.3,55.5z M36.5,39.7c4.4,0,8.7,0,13,0c0-3.9,0-7.8,0-11.7c-4.4,0-8.7,0-13,0
				C36.5,31.9,36.5,35.7,36.5,39.7z M20.8,39.7c4.4,0,8.7,0,13,0c0-4,0-7.8,0-11.7c-4.4,0-8.6,0-13,0C20.8,31.9,20.8,35.8,20.8,39.7
				z M20.8,69.9c4.4,0,8.6,0,13,0c0-3.9,0-7.8,0-11.7c-4.4,0-8.6,0-13,0C20.8,62.1,20.8,66,20.8,69.9z M36.5,69.9c4.4,0,8.7,0,13,0
				c0-3.9,0-7.8,0-11.7c-4.4,0-8.7,0-13,0C36.5,62.1,36.5,65.9,36.5,69.9z M6.4,39.7c3.9,0,7.8,0,11.7,0c0-3.9,0-7.8,0-11.7
				c-3.9,0-7.8,0-11.7,0C6.4,31.9,6.4,35.8,6.4,39.7z M18,69.9c0-3.9,0-7.8,0-11.7c-3.9,0-7.8,0-11.7,0c0,3.9,0,7.8,0,11.7
				C10.3,69.9,14.1,69.9,18,69.9z M52.3,28c0,4,0,7.8,0,11.7c3.9,0,7.8,0,11.7,0c0-3.9,0-7.8,0-11.7C60.1,28,56.2,28,52.3,28z
				 M52.3,69.9c3.9,0,7.8,0,11.7,0c0-3.9,0-7.8,0-11.7c-3.9,0-7.8,0-11.7,0C52.3,62.1,52.3,66,52.3,69.9z M22.1,14.3
				C22.1,14.3,22.1,14.3,22.1,14.3c0-1.4,0-2.7,0-4.1c0-3.3,0-3.3-3.2-3.3c-1.7,0-2,0.4-2.1,2.1c0,3,0,6,0,9c0,3.4,0,3.4,3.4,3.3
				c1.4,0,1.8-0.4,1.8-1.8C22.1,17.8,22.1,16,22.1,14.3z M53.6,14.2c0-1.4,0-2.7,0-4.1c0-3.3,0-3.3-3.3-3.2c-1.6,0-2,0.4-2,2
				c0,3.1,0,6.1,0,9.2c0,3.3,0,3.3,3.3,3.3c1.5,0,1.9-0.4,1.9-2C53.6,17.7,53.6,16,53.6,14.2z"/>
		</g>
	</g>
</g>
<g id="Calque_3" class="st0">
	<g id="XMLID_86_" class="st1">
		<path id="XMLID_87_" class="st2" d="M77,16.5c2.2,1,3.5,2.6,3.6,4.9c0.1,1.2-0.1,2.5-0.5,3.7C76,39,71.8,52.8,67.6,66.6
			c-1.7,5.4-5.2,8-10.9,8c-14,0-27.9,0-41.9,0c-5.9,0-11.3-4.1-12.6-9.7c-0.4-1.9,0.1-4,0.1-6c0-1.2-0.1-2.3,0.1-3.5
			c0.1-0.8,0.4-1.6,0.8-2.4c1.4-2.9,2.9-5.8,4.2-8.7c0.4-1,0.2-2.2,0.4-3.3c0.2-0.8,0.4-1.6,0.8-2.2c2.2-3.7,4.2-7.4,3.9-11.9
			c0-0.7,0.5-1.5,1-2.1c2.6-2.7,3.6-6.1,4.4-9.7c0.1-0.5-0.2-1-0.1-1.5c0.1-0.8,0.2-1.6,0.6-2.2c1-2,2.3-3.9,3.3-5.9
			c1.6-3.3,2.7-4,6.4-3.7c0.9,0.1,1.9-0.2,2.9-0.2c11.8,0,23.7,0,35.5,0c3.7,0,6.3,2.1,6.8,5.5c0.1,1.1,0,2.3-0.3,3.4
			c-4.4,14.8-8.9,29.5-13.4,44.2c-0.3,0.9-0.7,1.8-1,2.7c-1.1,3.3-3.5,4.8-6.9,4.8c-0.7,0-1.4,0-2.1,0c-13.2,0-26.3,0-39.5,0
			c-0.9,0-2.4,0.5-2.6,1c-0.2,0.9,0.1,2.2,0.8,3c0.7,0.8,1.9,1.4,2.9,1.7c1,0.3,2.2,0.4,3.3,0.4c14.2,0,28.3,0,42.5,0
			c3.7,0,4.8-0.8,5.9-4.3c4.5-14.8,9-29.6,13.5-44.4C76.6,18.8,76.7,17.7,77,16.5z M54.1,32.2c1.7,0,2.7-0.6,3.1-2.2
			c0.1-0.6,0.4-1.1,0.6-1.7c0.5-1.7,0.2-2.1-1.5-2.1c-9.2,0-18.4,0-27.6,0c-1.5,0-2.4,0.7-2.8,2.1c-0.2,0.6-0.4,1.2-0.6,1.7
			c-0.6,1.9-0.3,2.3,1.6,2.3L54.1,32.2z M46.4,13.9c-4.6,0-9.1,0-13.7,0c-1.5,0-2.5,0.6-2.9,2.1c-0.2,0.6-0.4,1.1-0.6,1.7
			C28.7,19.6,29,20,30.9,20c9.1,0,18.2,0,27.3,0c1.5,0,2.5-0.6,2.9-2.1c0.2-0.6,0.4-1.2,0.6-1.7c0.6-1.9,0.3-2.3-1.6-2.3
			C55.5,13.9,50.9,13.9,46.4,13.9z"/>
	</g>
</g>
<g id="Calque_4">
	<g id="XMLID_65_">
		<g id="XMLID_95_">
			<path id="XMLID_96_" class="st2" d="M1.7,74.7c0-24.3,0-48.6,0-72.9c24.3,0,48.6,0,72.9,0c0,24.3,0,48.6,0,72.9
				C50.3,74.7,26.1,74.7,1.7,74.7z M23.2,10.7c0.4,0.6,0.7,1.1,1,1.5c2.8,3.7,5.5,7.5,8.4,11.2c0.8,1,0.9,1.9,0.4,3
				c-3.2,9-6.3,18-9.5,26.9c-0.4,1.2-0.2,1.8,0.7,2.6c3.4,3.2,6.8,6.4,10.1,9.7c1.3,1.2,2.5,2.4,3.9,3.7c5-4.8,9.8-9.4,14.6-14.1
				c0.3-0.3,0.3-1.1,0.1-1.6c-3.2-9.2-6.4-18.4-9.6-27.5c-0.3-1-0.3-1.7,0.4-2.5c2.1-2.6,4-5.3,6-8c1.2-1.6,2.3-3.1,3.6-4.9
				C43.1,10.7,33.3,10.7,23.2,10.7z"/>
		</g>
	</g>
</g>
</svg>
