<?xml version="1.0" encoding="utf-8"?>
<!-- Generator: Adobe Illustrator 19.0.0, SVG Export Plug-In . SVG Version: 6.00 Build 0)  -->
<svg version="1.1" id="Calque_1" xmlns="http://www.w3.org/2000/svg" xmlns:xlink="http://www.w3.org/1999/xlink" x="0px" y="0px"
	 viewBox="0 0 100 69.6" style="enable-background:new 0 0 100 69.6;" xml:space="preserve">
<style type="text/css">
	.st0{fill:#FFFFFF;}
</style>
<g id="XMLID_103_">
	<path id="XMLID_201_" class="st0" d="M50,68.5c-11.5,0-23,0-34.5,0c-8.9,0-13.8-5-13.9-13.9C1.4,42.1,3.9,30.5,11.9,20.5
		C20.6,9.6,31.9,3.4,45.8,2.1c24.4-2.3,43.3,13.6,49.7,31.1c2.8,7.7,3.6,15.6,3.1,23.7c-0.5,7.2-5.7,11.6-13,11.6
		C73.7,68.5,61.9,68.5,50,68.5z M50.1,62.2c11.7,0,23.4,0,35,0c4.6,0,7.2-2.3,7.2-7c0-4,0-8.1-0.6-12C87.9,17.7,61.3,1.5,36.9,9.9
		C15.8,17.2,6.4,35.7,8,56.3c0.3,3.9,2.9,6,6.8,6C26.5,62.3,38.3,62.2,50.1,62.2z"/>
	<path id="XMLID_140_" class="st0" d="M50.1,58.9c-4.1,0-7.6-2.5-9.1-6.2c-1.4-3.6-0.4-7.7,2.4-10.5c5.5-5.8,10.9-11.6,16.4-17.5
		c2-2.1,3.7-4.5,5.7-6.5c0.7-0.7,2-0.8,3.1-1.1c0.2,1.1,0.8,2.3,0.5,3.2c-2.6,8.2-5.4,16.4-8.1,24.7c-0.5,1.6-0.8,3.2-1,4.9
		C59.5,55,55.3,58.9,50.1,58.9z M50.1,53.8c2.7,0,4.7-1.9,4.7-4.5c0.1-2.6-2.1-4.9-4.7-4.9c-2.6,0-4.8,2.3-4.7,4.9
		C45.5,51.9,47.5,53.8,50.1,53.8z"/>
	<path id="XMLID_139_" class="st0" d="M26.3,31.6c0.1,2.3-1.7,4.2-3.9,4.3c-2.1,0.1-4-1.8-4.1-4.1c0-2.3,1.4-3.8,3.7-3.9
		C24.6,27.8,26.3,29.2,26.3,31.6z"/>
	<path id="XMLID_138_" class="st0" d="M81.9,31.8c0,2.2-1.9,4.1-4.1,4.1c-2.2-0.1-3.9-2-3.9-4.3c0.1-2.3,1.6-3.7,3.9-3.7
		C80.4,27.9,81.9,29.4,81.9,31.8z"/>
	<path id="XMLID_107_" class="st0" d="M50,11.8c2.1-0.1,4.2,2,4.3,4c0,2-1.8,3.8-3.9,3.9c-2.3,0.1-4.3-1.6-4.4-3.8
		C45.9,13.9,47.9,11.8,50,11.8z"/>
	<path id="XMLID_106_" class="st0" d="M22,47.7c0,2.5-1.5,4-4,4c-2.1,0-4-1.7-4.1-3.8c-0.1-2.2,1.8-4.1,4-4.2
		C20.2,43.6,21.9,45.3,22,47.7z"/>
	<path id="XMLID_105_" class="st0" d="M86.3,47.7c0,2.1-1.9,3.9-4.2,3.9c-2.3,0-3.8-1.5-3.8-3.8c0-2.4,1.6-4.1,3.9-4.1
		C84.4,43.7,86.3,45.6,86.3,47.7z"/>
	<path id="XMLID_104_" class="st0" d="M38.1,20c0.1,2.2-1.8,4.2-4,4.1c-2.1,0-3.9-1.8-3.9-3.9c-0.1-2.3,1.4-3.9,3.7-4
		C36.2,16.1,38,17.7,38.1,20z"/>
</g>
</svg>
